<?xml version="1.0" encoding="utf-8"?>
<!-- Generator: Adobe Illustrator 28.2.0, SVG Export Plug-In . SVG Version: 6.00 Build 0)  -->
<svg version="1.1" id="Outlined" xmlns="http://www.w3.org/2000/svg" xmlns:xlink="http://www.w3.org/1999/xlink" x="0px" y="0px"
	 viewBox="0 0 520 270" style="enable-background:new 0 0 520 270;" xml:space="preserve">
<style type="text/css">
	.st0{fill:#f39426;}
	.st1{fill:#1e1e1e;}
</style>
<g>
	<path class="st0" d="M478.93,25.77l-0.24,106.64l35.07-22.03l0.24-106.63L478.93,25.77z"/>
</g>
<g>
	<g>
		<path class="st1" d="M62.26,109.81l9.33,8.06c-1.42,2.12-3.54,4.31-6.36,6.57c-2.83,2.26-6.18,4.17-10.07,5.72
			c-3.89,1.55-8.09,2.33-12.61,2.33c-7,0-13.2-1.59-18.6-4.77c-5.41-3.18-9.65-7.54-12.72-13.09c-3.07-5.55-4.61-11.82-4.61-18.81
			c0-5.16,0.88-10,2.65-14.52c1.77-4.52,4.26-8.5,7.47-11.92c3.21-3.43,7.05-6.11,11.5-8.06c4.45-1.94,9.36-2.92,14.73-2.92
			c7,0,12.81,1.38,17.44,4.13c4.63,2.76,8.36,6.11,11.18,10.07l-9.43,8.37c-2.26-3.25-4.89-5.86-7.9-7.84
			c-3-1.98-6.77-2.97-11.29-2.97c-4.59,0-8.57,1.17-11.92,3.5c-3.36,2.33-5.94,5.42-7.74,9.27c-1.8,3.85-2.7,8.04-2.7,12.56
			c0,4.52,0.9,8.62,2.7,12.3c1.8,3.68,4.33,6.61,7.58,8.8c3.25,2.19,7.07,3.29,11.45,3.29c4.1,0,7.4-0.6,9.91-1.8
			c2.51-1.2,4.52-2.6,6.04-4.19C59.81,112.3,61.13,110.94,62.26,109.81z"/>
	</g>
	<g>
		<path class="st1" d="M77.63,73.24V60.09h13.36v13.14H77.63z M78.06,130.8V81.08h12.51v49.71H78.06z"/>
	</g>
	<g>
		<path class="st1" d="M104.98,113.84V91.26H96.5V81.08h8.48V64.97h12.51v16.11h8.65l4.71,10.18h-13.36v21.73
			c0,2.83,0.48,5,1.43,6.52c0.95,1.52,2.49,2.28,4.61,2.28c1.98,0,3.55-0.28,4.72-0.85c1.17-0.56,2.28-1.24,3.34-2.01l5.3,7.74
			c-2.47,1.98-4.91,3.43-7.31,4.35c-2.4,0.92-5.09,1.38-8.06,1.38c-6.08,0-10.35-1.7-12.83-5.09
			C106.22,123.91,104.98,119.42,104.98,113.84z"/>
	</g>
	<g>
		<path class="st1" d="M134.98,149.45l5.62-8.8c0.71,0.56,1.48,1.11,2.33,1.64c0.85,0.53,1.91,0.79,3.18,0.79
			c1.7,0,3.11-0.71,4.24-2.12c1.13-1.41,2.26-3.6,3.39-6.57l1.59-4.03l-22.37-49.29h14.42l14.2,34.03l12.51-34.03h13.67
			l-20.78,49.71c-0.99,2.4-2,4.93-3.02,7.58c-1.03,2.65-2.23,5.09-3.6,7.31c-1.38,2.23-3.13,4.04-5.25,5.46
			c-2.12,1.41-4.84,2.12-8.16,2.12c-2.83,0-5.18-0.35-7.05-1.06C138.04,151.5,136.39,150.58,134.98,149.45z"/>
	</g>
	<g>
		<path class="st1" d="M187.77,124.75l7.53-8.16c1.55,1.56,3.51,2.85,5.88,3.87c2.37,1.03,5.07,1.54,8.11,1.54
			c2.68,0,4.84-0.37,6.47-1.11c1.62-0.74,2.44-1.89,2.44-3.44c0-0.99-0.3-1.85-0.9-2.6c-0.6-0.74-1.79-1.48-3.55-2.23
			c-1.77-0.74-4.49-1.54-8.16-2.38c-2.19-0.56-4.52-1.41-7-2.54c-2.47-1.13-4.58-2.74-6.31-4.82c-1.73-2.08-2.6-4.72-2.6-7.9
			c0-3.32,1.01-6.15,3.02-8.48s4.59-4.1,7.74-5.3c3.14-1.2,6.38-1.8,9.7-1.8c4.38,0,8.12,0.46,11.24,1.38
			c3.11,0.92,5.87,2.3,8.27,4.13l-6.47,8.8c-1.34-0.99-3.13-1.89-5.35-2.7c-2.23-0.81-4.79-1.22-7.68-1.22
			c-2.9,0-4.95,0.44-6.15,1.33c-1.2,0.88-1.8,1.96-1.8,3.23c0,1.56,0.97,2.77,2.92,3.66c1.94,0.88,4.96,1.82,9.06,2.81
			c5.02,1.13,9.03,2.88,12.03,5.25c3,2.37,4.5,5.95,4.5,10.76c0,3.18-0.97,5.95-2.92,8.32c-1.94,2.37-4.52,4.19-7.74,5.46
			c-3.22,1.27-6.77,1.91-10.65,1.91c-4.59,0-8.78-0.65-12.56-1.96C193.05,129.22,190.03,127.3,187.77,124.75z"/>
	</g>
	<g>
		<path class="st1" d="M274.58,116.17l7.42,8.06c-2.33,2.47-5.11,4.45-8.32,5.94c-3.22,1.48-6.91,2.23-11.08,2.23
			c-5.65,0-10.48-1.11-14.47-3.34c-3.99-2.23-7.03-5.33-9.12-9.33c-2.08-3.99-3.13-8.6-3.13-13.83c0-4.8,1.13-9.22,3.39-13.25
			c2.26-4.03,5.39-7.24,9.38-9.65c3.99-2.4,8.64-3.6,13.94-3.6c4.03,0,7.7,0.73,11.02,2.17c3.32,1.45,6.15,3.41,8.48,5.88
			l-7.95,8.06c-1.34-1.62-2.99-2.9-4.93-3.82c-1.94-0.92-4.15-1.38-6.62-1.38c-3.18,0-5.81,0.74-7.9,2.23
			c-2.08,1.48-3.64,3.41-4.66,5.78c-1.02,2.37-1.54,4.89-1.54,7.58c0,2.47,0.51,4.91,1.54,7.31c1.02,2.4,2.58,4.38,4.66,5.94
			c2.08,1.56,4.72,2.33,7.9,2.33c2.47,0,4.75-0.48,6.84-1.43C271.53,119.08,273.24,117.79,274.58,116.17z"/>
	</g>
	<g>
		<path class="st1" d="M317.41,130.8l-0.32-4.66c-1.34,1.63-3.41,3.07-6.2,4.35c-2.79,1.27-5.85,1.91-9.17,1.91
			c-2.69,0-5.35-0.57-8-1.7c-2.65-1.13-4.84-2.9-6.57-5.3c-1.73-2.4-2.6-5.44-2.6-9.12c0-5.65,2.01-10.03,6.04-13.14
			c4.03-3.11,9.29-4.66,15.79-4.66c1.2,0,2.63,0.04,4.29,0.11c1.66,0.07,3.8,0.18,6.41,0.32v-1.17c0-2.47-0.99-4.42-2.97-5.83
			c-1.98-1.41-4.56-2.12-7.74-2.12c-3.54,0-6.36,0.46-8.48,1.38c-2.12,0.92-3.99,1.91-5.62,2.97l-5.72-8.48
			c1.34-0.99,2.93-1.96,4.77-2.92c1.84-0.95,4.1-1.75,6.78-2.39c2.68-0.64,6.01-0.95,9.96-0.95c6.36,0,11.45,1.68,15.26,5.04
			c3.82,3.36,5.72,7.69,5.72,12.98v33.39H317.41z M317.09,113.2v-4.88c-1.63-0.14-3.39-0.25-5.3-0.32
			c-1.91-0.07-3.36-0.11-4.35-0.11c-4.03,0-6.86,0.79-8.48,2.38c-1.63,1.59-2.44,3.41-2.44,5.46c0,2.12,0.76,3.78,2.28,4.98
			c1.52,1.2,3.76,1.8,6.73,1.8c1.98,0,3.83-0.42,5.57-1.27c1.73-0.85,3.16-1.98,4.29-3.39C316.52,116.45,317.09,114.9,317.09,113.2z
			"/>
	</g>
	<g>
		<path class="st1" d="M338.5,152V81.08h12.08l0.32,5.62c1.27-1.41,3.2-2.86,5.78-4.35c2.58-1.48,5.92-2.23,10.02-2.23
			c5.09,0,9.28,1.26,12.56,3.76c3.29,2.51,5.74,5.74,7.37,9.7c1.62,3.96,2.44,8.16,2.44,12.61c0,3.89-0.57,7.21-1.7,9.96
			c-1.13,2.76-2.54,5.16-4.24,7.21c-2.83,3.32-5.92,5.67-9.27,7.05c-3.36,1.38-6.8,2.07-10.33,2.07c-3.25,0-5.71-0.26-7.37-0.79
			c-1.66-0.53-3.41-1.15-5.25-1.86V152H338.5z M350.9,103.87v14.73c2.47,2.05,6.22,3.07,11.24,3.07c3.04,0,5.62-0.74,7.74-2.23
			c2.12-1.48,3.75-3.41,4.88-5.78c1.13-2.37,1.7-4.86,1.7-7.47c0-2.83-0.41-5.39-1.22-7.69c-0.81-2.3-2.17-4.13-4.08-5.51
			s-4.45-2.07-7.63-2.07c-2.54,0-4.75,0.67-6.62,2.01c-1.87,1.34-3.34,3.02-4.4,5.03C351.43,100,350.9,101.96,350.9,103.87z"/>
	</g>
	<g>
		<path class="st1" d="M436.34,115.96l6.78,7.63c-0.21,0.21-0.79,0.79-1.75,1.75s-2.33,1.98-4.13,3.07c-1.8,1.1-4.1,2.05-6.89,2.86
			c-2.79,0.81-6.13,1.22-10.02,1.22c-5.3,0-9.91-1.15-13.83-3.45c-3.92-2.29-6.98-5.49-9.17-9.59c-2.19-4.1-3.29-8.8-3.29-14.1
			c0-4.88,1.08-9.27,3.23-13.2c2.15-3.92,5.12-7.03,8.9-9.33c3.78-2.3,8.14-3.45,13.09-3.45c4.59,0,8.44,0.81,11.55,2.44
			c3.11,1.63,5.62,3.8,7.53,6.52c1.91,2.72,3.29,5.78,4.13,9.17c0.85,3.39,1.27,6.86,1.27,10.39v1.8h-37.1
			c0,2.4,0.69,4.51,2.07,6.31c1.38,1.8,3.13,3.22,5.25,4.24c2.12,1.02,4.27,1.54,6.47,1.54c3.25,0,5.94-0.37,8.06-1.11
			s3.82-1.57,5.09-2.49C434.85,117.26,435.77,116.52,436.34,115.96z M406.55,100.69h24.38c0-1.7-0.44-3.37-1.33-5.04
			c-0.88-1.66-2.17-3.04-3.87-4.13c-1.7-1.09-3.85-1.64-6.47-1.64c-2.76,0-5.07,0.55-6.94,1.64c-1.87,1.1-3.3,2.47-4.29,4.13
			C407.05,97.32,406.55,99,406.55,100.69z"/>
	</g>
</g>
<g>
	<path class="st0" d="M6.08,240.82v-70.7h45.79v11.77H19.44v16.64h23.85v11.87H19.44v18.44h34.87v11.98H6.08z"/>
	<path class="st0" d="M62.69,258.1l5.62-9.22c3.74,2.54,8.59,3.82,14.52,3.82c3.25,0,5.97-1.01,8.16-3.02
		c2.19-2.01,3.29-4.75,3.29-8.21v-5.41c-1.7,1.34-3.55,2.47-5.56,3.39c-2.01,0.92-4.68,1.38-8,1.38c-4.74,0-8.82-1.04-12.24-3.13
		c-3.43-2.08-6.04-4.95-7.84-8.59c-1.8-3.64-2.7-7.79-2.7-12.46c0-4.95,1.15-9.43,3.45-13.46c2.3-4.03,5.55-7.22,9.75-9.59
		c4.2-2.37,9.17-3.55,14.89-3.55c4.31,0,8.3,0.35,11.98,1.06c3.67,0.71,6.61,1.45,8.8,2.23v48.34c0,4.59-1.03,8.51-3.07,11.77
		c-2.05,3.25-4.86,5.71-8.43,7.37c-3.57,1.66-7.65,2.49-12.24,2.49c-5.16,0-9.26-0.46-12.3-1.38C67.7,261,65.02,259.73,62.69,258.1z
		 M94.28,219.73v-17.81c-0.99-0.35-2.01-0.62-3.07-0.79c-1.06-0.18-2.72-0.27-4.98-0.27c-3.39,0-6.24,0.73-8.53,2.17
		c-2.3,1.45-4.05,3.34-5.25,5.67c-1.2,2.33-1.8,4.88-1.8,7.63c0,3.82,0.95,7.03,2.86,9.65c1.91,2.62,4.98,3.92,9.22,3.92
		C90.42,229.91,94.28,226.52,94.28,219.73z"/>
	<path class="st0" d="M112.83,259.48l5.62-8.8c0.71,0.56,1.48,1.11,2.33,1.64c0.85,0.53,1.91,0.79,3.18,0.79
		c1.7,0,3.11-0.71,4.24-2.12c1.13-1.41,2.26-3.6,3.39-6.57l1.59-4.03l-22.37-49.29h14.42l14.2,34.03l12.51-34.03h13.67l-20.78,49.71
		c-0.99,2.4-2,4.93-3.02,7.58c-1.03,2.65-2.23,5.09-3.6,7.31c-1.38,2.23-3.13,4.04-5.25,5.46c-2.12,1.41-4.84,2.12-8.16,2.12
		c-2.83,0-5.18-0.35-7.05-1.06C115.88,261.53,114.24,260.61,112.83,259.48z"/>
	<path class="st0" d="M169.64,262.03v-70.91h12.08l0.32,5.62c1.27-1.41,3.2-2.86,5.78-4.35c2.58-1.48,5.92-2.23,10.02-2.23
		c5.09,0,9.27,1.26,12.56,3.76c3.29,2.51,5.74,5.74,7.37,9.7c1.62,3.96,2.44,8.16,2.44,12.61c0,3.89-0.57,7.21-1.7,9.96
		c-1.13,2.76-2.54,5.16-4.24,7.21c-2.83,3.32-5.92,5.67-9.27,7.05c-3.36,1.38-6.8,2.07-10.33,2.07c-3.25,0-5.71-0.26-7.37-0.79
		c-1.66-0.53-3.41-1.15-5.25-1.86v22.15H169.64z M182.04,213.9v14.73c2.47,2.05,6.22,3.07,11.24,3.07c3.04,0,5.62-0.74,7.74-2.23
		s3.74-3.41,4.88-5.78c1.13-2.37,1.7-4.86,1.7-7.47c0-2.83-0.41-5.39-1.22-7.68c-0.81-2.3-2.17-4.13-4.08-5.51
		c-1.91-1.38-4.45-2.07-7.63-2.07c-2.54,0-4.75,0.67-6.62,2.01c-1.87,1.34-3.34,3.02-4.4,5.04S182.04,211.99,182.04,213.9z"/>
	<path class="st0" d="M231.76,223.86v-22.58h-8.48v-10.18h8.48V175h12.51v16.11h13.36v10.18h-13.36v21.73c0,2.83,0.48,5,1.43,6.52
		c0.95,1.52,2.49,2.28,4.61,2.28c1.98,0,3.55-0.28,4.72-0.85c1.17-0.57,2.28-1.24,3.34-2.01l5.3,7.74
		c-2.47,1.98-4.91,3.43-7.31,4.35c-2.4,0.92-5.09,1.38-8.06,1.38c-6.08,0-10.35-1.7-12.83-5.09
		C232.99,233.94,231.76,229.45,231.76,223.86z"/>
</g>
</svg>
