<svg width="260" height="53" viewBox="0 0 260 53" fill="none" xmlns="http://www.w3.org/2000/svg">
<mask id="mask0_1794_2551" style="mask-type:luminance" maskUnits="userSpaceOnUse" x="0" y="0" width="260" height="53">
<path d="M260 0H0V52.305H260V0Z" fill="white"/>
</mask>
<g mask="url(#mask0_1794_2551)">
<path d="M27.641 13.535V13.648H35.472C34.714 13.838 32.924 15.654 31.972 18.066H20.572V8.1C20.572 8.028 20.482 0.967 27.725 0.083C28.063 0.04 28.398 0.014 28.75 0.002L28.898 0H38.103V12.348H28.886C28.7257 12.342 28.5659 12.3681 28.4159 12.4249C28.266 12.4817 28.1289 12.568 28.0128 12.6786C27.8968 12.7893 27.8041 12.9221 27.7402 13.0692C27.6763 13.2163 27.6426 13.3747 27.641 13.535Z" fill="#333333"/>
<path d="M31.976 19.3662V39.5582H15.928C17.4029 38.7006 18.6092 37.4483 19.411 35.9422C20.1813 34.4912 20.5802 32.872 20.572 31.2292V19.3662H31.976Z" fill="#333333"/>
<path d="M24.8221 52.2231C24.4861 52.2621 24.1491 52.2871 23.7981 52.2981L23.6521 52.3051H13.5341V40.8511H31.9771V44.6051C31.9761 46.5464 31.2358 48.4146 29.9067 49.8297C28.5777 51.2447 26.7596 52.1005 24.8221 52.2231Z" fill="#333333"/>
<path d="M66.3051 26.6851V44.0851C66.3051 44.1561 66.3951 51.2171 59.1511 52.1031C58.8151 52.1441 47.8621 52.1891 47.8621 52.1891V40.7471C47.8621 40.7471 49.9741 39.9321 50.4911 39.6351C51.5031 39.0385 52.356 38.2062 52.9771 37.2091C53.8397 35.736 54.3796 34.0965 54.561 32.3991C54.629 31.9251 54.753 27.0911 54.748 26.6841L66.3051 26.6851Z" fill="#333333"/>
<path d="M18.4431 13.647V25.504H5.2892e-05V21.751C5.2892e-05 21.68 -0.0899467 14.619 7.15505 13.733C7.49105 13.692 7.82405 13.666 8.17905 13.654L8.32505 13.647H18.4431Z" fill="#333333"/>
<path d="M15.158 37.6408C14.0354 38.3972 12.7463 38.8704 11.401 39.0198C11.364 39.0198 11.326 39.0308 11.289 39.0348C10.953 39.0758 10.616 39.1018 10.265 39.1128L10.119 39.1198H0V26.7998H18.443V31.0158C18.443 31.0718 18.495 35.3158 15.157 37.6398" fill="#333333"/>
<path d="M52.482 29.786C52.4855 31.6047 52.1016 33.4032 51.356 35.062C51.0191 35.9202 50.4772 36.6828 49.7777 37.2833C49.0782 37.8839 48.2423 38.304 47.343 38.507C46.3275 38.7638 45.2844 38.8955 44.237 38.899H34.12V31.234H42.097C42.2608 31.234 42.423 31.2017 42.5743 31.1388C42.7256 31.076 42.8631 30.984 42.9787 30.8679C43.0944 30.7519 43.186 30.6142 43.2483 30.4627C43.3107 30.3111 43.3425 30.1488 43.342 29.985V29.873H34.12C34.132 29.873 33.983 21.221 34.463 19.518C34.9593 17.7978 36.0106 16.29 37.453 15.2294C38.8954 14.1688 40.648 13.6149 42.438 13.654C45.023 13.622 47.611 13.647 50.197 13.647H52.563V15.109C52.563 16.031 52.508 25.482 52.483 29.787" fill="#333333"/>
<path d="M88.3919 48.2701C88.6329 48.2781 88.872 48.2258 89.0876 48.1181C89.3032 48.0103 89.4886 47.8505 89.6269 47.6531C89.9453 47.2274 90.1148 46.7087 90.1089 46.1771C90.1092 46.0748 90.1021 45.9725 90.088 45.8711C90.0549 45.4641 89.8874 45.0796 89.6119 44.7781C89.3513 44.4764 89.0008 44.2661 88.6119 44.1781H87.1119V48.2701H88.3919ZM85.9919 49.3331V43.0981H88.6849C89.0637 43.1243 89.4322 43.2332 89.7644 43.417C90.0966 43.6008 90.3845 43.8551 90.6079 44.1621C91.0617 44.7709 91.3027 45.5119 91.2939 46.2711C91.3001 46.8283 91.1675 47.3781 90.9079 47.8711C90.6434 48.3627 90.2271 48.7556 89.7209 48.9911C89.5132 49.0934 89.2966 49.1767 89.0739 49.2401C88.8587 49.3018 88.6359 49.3335 88.4119 49.3341L85.9919 49.3331Z" fill="#333333"/>
<path d="M89.803 47.784C89.6442 48.0087 89.4323 48.1906 89.1861 48.3136C88.9399 48.4366 88.6671 48.4969 88.3921 48.489H86.8921V43.9599H88.632C89.0748 44.0558 89.4747 44.2922 89.772 44.6339C90.0759 44.9674 90.2618 45.3915 90.3011 45.8409C90.3171 45.9526 90.3252 46.0652 90.325 46.1779C90.3321 46.7566 90.1475 47.3212 89.8 47.784M88.679 43.3169H86.2111V49.1169H88.4051C88.6081 49.1161 88.81 49.0872 89.005 49.0309C89.2154 48.9712 89.4199 48.8925 89.6161 48.7959C90.0806 48.5809 90.4627 48.2208 90.705 47.7699C90.9489 47.308 91.073 46.7923 91.066 46.2699C91.0755 45.5575 90.8495 44.8618 90.423 44.291C90.2205 44.0108 89.9593 43.7783 89.6575 43.6097C89.3557 43.4411 89.0208 43.3405 88.6761 43.3149" fill="#333333"/>
</g>
<path d="M101.98 49.3331V43.0981H105.567V44.1621H103.119V45.4411H105.572V46.4741H103.119V48.2741H105.572V49.3371L101.98 49.3331Z" fill="#333333"/>
<path d="M102.199 49.1149H105.349V48.4879H102.896V46.2549H105.349V45.6549H102.896V43.9429H105.349V43.3159H102.199V49.1149Z" fill="#333333"/>
<path d="M118.725 49.5141L116.152 43.0981H117.427L119.005 47.4321L120.568 43.0981H121.821L119.231 49.5141H118.725Z" fill="#333333"/>
<path d="M119.006 48.0739L117.274 43.3179H116.474L118.874 49.2969H119.086L121.5 43.3179H120.718L119.006 48.0739Z" fill="#333333"/>
<path d="M132.406 49.3331V43.0981H135.993V44.1621H133.54V45.4411H135.993V46.4741H133.54V48.2741H135.993V49.3371L132.406 49.3331Z" fill="#333333"/>
<path d="M132.625 49.1149H135.775V48.4879H133.322V46.2549H135.775V45.6549H133.322V43.9429H135.775V43.3159H132.625V49.1149Z" fill="#333333"/>
<path d="M146.682 49.3331V43.0981H147.84V48.2701H149.979V49.3331H146.682Z" fill="#333333"/>
<path d="M147.622 43.3159H146.899V49.1159H149.759V48.4889H147.62L147.622 43.3159Z" fill="#333333"/>
<mask id="mask1_1794_2551" style="mask-type:luminance" maskUnits="userSpaceOnUse" x="0" y="0" width="260" height="53">
<path d="M260 0H0V52.305H260V0Z" fill="white"/>
</mask>
<g mask="url(#mask1_1794_2551)">
<path d="M163.983 43.9979C163.697 43.992 163.412 44.0473 163.149 44.1601C162.886 44.2729 162.649 44.4406 162.456 44.6519C162.251 44.8606 162.089 45.1083 161.981 45.3803C161.873 45.6524 161.821 45.9433 161.827 46.2359C161.821 46.5219 161.875 46.8059 161.988 47.069C162.1 47.3321 162.266 47.5684 162.477 47.7619C162.686 47.967 162.934 48.1281 163.206 48.2357C163.478 48.3432 163.769 48.395 164.062 48.3879C164.348 48.3938 164.633 48.3385 164.896 48.2257C165.159 48.1129 165.396 47.9453 165.589 47.7339C165.794 47.5265 165.955 47.2802 166.063 47.0095C166.171 46.7389 166.224 46.4493 166.218 46.1579C166.224 45.8711 166.169 45.5863 166.056 45.3225C165.943 45.0587 165.775 44.8219 165.564 44.6279C165.356 44.4225 165.109 44.2608 164.837 44.1526C164.566 44.0444 164.275 43.9918 163.983 43.9979ZM164.061 49.4909C163.174 49.5038 162.317 49.1685 161.675 48.5569C161.353 48.2664 161.096 47.9103 160.923 47.5126C160.749 47.1149 160.663 46.6848 160.669 46.2509C160.668 45.8153 160.753 45.3838 160.919 44.9812C161.085 44.5785 161.33 44.2126 161.637 43.9045C161.945 43.5963 162.311 43.352 162.713 43.1854C163.116 43.0189 163.547 42.9334 163.983 42.9339C164.87 42.9211 165.727 43.2564 166.369 43.8679C166.691 44.1585 166.947 44.5144 167.12 44.9119C167.294 45.3094 167.38 45.7393 167.374 46.1729C167.375 46.6085 167.29 47.0399 167.124 47.4425C166.958 47.8451 166.714 48.2109 166.406 48.5191C166.098 48.8272 165.733 49.0716 165.33 49.2382C164.928 49.4048 164.496 49.4913 164.061 49.4909Z" fill="#333333"/>
<path d="M165.746 47.8838C165.532 48.1161 165.271 48.3005 164.981 48.425C164.69 48.5494 164.377 48.611 164.061 48.6058C163.741 48.6122 163.422 48.5547 163.124 48.4367C162.826 48.3188 162.554 48.1427 162.325 47.9188C162.094 47.7045 161.91 47.4438 161.787 47.1538C161.663 46.8638 161.602 46.551 161.608 46.2358C161.603 45.9155 161.661 45.5973 161.779 45.2997C161.898 45.002 162.074 44.7308 162.298 44.5018C162.512 44.2694 162.773 44.085 163.063 43.9605C163.354 43.8361 163.667 43.7745 163.983 43.7798C164.303 43.7743 164.621 43.8325 164.918 43.9509C165.216 44.0694 165.486 44.2457 165.715 44.4698C165.947 44.6846 166.131 44.946 166.256 45.2369C166.38 45.5277 166.441 45.8415 166.436 46.1578C166.441 46.4769 166.383 46.7938 166.264 47.0903C166.146 47.3867 165.97 47.6568 165.747 47.8848M163.984 43.1528C163.577 43.1517 163.173 43.2312 162.796 43.3866C162.42 43.542 162.078 43.7703 161.79 44.0584C161.502 44.3465 161.273 44.6886 161.118 45.0652C160.962 45.4418 160.883 45.8454 160.884 46.2528C160.877 46.6566 160.958 47.0572 161.119 47.4274C161.281 47.7976 161.52 48.1289 161.82 48.3988C162.422 48.9733 163.225 49.2876 164.057 49.2738C164.464 49.2748 164.868 49.1954 165.245 49.04C165.621 48.8845 165.963 48.6562 166.251 48.3682C166.539 48.0801 166.768 47.7379 166.923 47.3613C167.079 46.9848 167.158 46.5812 167.157 46.1738C167.163 45.7699 167.083 45.3693 166.921 44.9991C166.76 44.6289 166.521 44.2977 166.22 44.0278C165.618 43.4533 164.816 43.1389 163.984 43.1528Z" fill="#333333"/>
<path d="M180.129 45.6988C180.287 45.6476 180.423 45.5447 180.516 45.4068C180.619 45.2606 180.674 45.0858 180.674 44.9068C180.676 44.7625 180.638 44.6205 180.564 44.4968C180.488 44.3757 180.373 44.2838 180.238 44.2358C180.134 44.2007 180.027 44.1746 179.919 44.1578H179.219V45.7038L180.129 45.6988ZM178.064 49.3328V43.0918L180.164 43.1178C180.602 43.1549 181.017 43.3323 181.346 43.6238C181.505 43.7646 181.631 43.9384 181.716 44.133C181.801 44.3277 181.842 44.5385 181.837 44.7508V44.9508C181.845 45.3899 181.685 45.8155 181.39 46.1408C181.089 46.4725 180.672 46.6759 180.226 46.7088H179.212V49.3258L178.064 49.3328Z" fill="#333333"/>
<path d="M180.696 45.5319C180.569 45.7189 180.38 45.8555 180.163 45.9179H178.995V43.9359H179.935C180.066 43.9554 180.194 43.9868 180.319 44.0299C180.498 44.0958 180.649 44.2193 180.75 44.3809C180.844 44.5389 180.893 44.7199 180.891 44.9039C180.891 45.1289 180.821 45.3484 180.691 45.5319M180.158 43.3409L178.277 43.3169V49.1169H178.99V46.4999H180.201C180.594 46.4718 180.961 46.2926 181.225 45.9999C181.484 45.715 181.624 45.3418 181.616 44.9569V44.7569C181.621 44.5752 181.586 44.3946 181.514 44.2279C181.441 44.0612 181.333 43.9123 181.197 43.7919C180.908 43.535 180.544 43.3776 180.159 43.3429" fill="#333333"/>
</g>
<path d="M195.812 49.488L194.248 45.537L193.648 49.337H192.479L193.715 42.937H194.284L196.118 47.402L197.918 42.937H198.491L199.66 49.337H198.449L197.903 45.566L196.303 49.497L195.812 49.488Z" fill="#333333"/>
<path d="M198.067 43.1519L196.124 47.9789L194.141 43.1519H193.898L192.746 49.1149H193.464L194.155 44.7149L195.955 49.2739H196.155L197.999 44.7349L198.634 49.1149H199.394L198.305 43.1519H198.067Z" fill="#333333"/>
<path d="M210.308 49.3331V43.0981H213.895V44.1621H211.442V45.4411H213.895V46.4741H211.442V48.2741H213.895V49.3371L210.308 49.3331Z" fill="#333333"/>
<path d="M210.526 49.1149H213.676V48.4879H211.223V46.2549H213.676V45.6549H211.223V43.9429H213.676V43.3159H210.526V49.1149Z" fill="#333333"/>
<path d="M229.59 49.459L225.673 45.151V49.335H224.586V42.958H225.065L228.942 47.266V43.097H230.042V49.458L229.59 49.459Z" fill="#333333"/>
<path d="M229.16 47.8362L224.967 43.1772H224.804V49.1162H225.454V44.5872L229.685 49.2422H229.826V43.3182H229.16V47.8362Z" fill="#333333"/>
<path d="M242.403 49.3331V44.1461H240.734V43.0981H245.234V44.1461H243.565V49.3331H242.403Z" fill="#333333"/>
<path d="M240.953 43.9279H242.622V49.1149H243.343V43.9279H245.012V43.3169H240.953V43.9279Z" fill="#333333"/>
<mask id="mask2_1794_2551" style="mask-type:luminance" maskUnits="userSpaceOnUse" x="0" y="0" width="260" height="53">
<path d="M260 0H0V52.305H260V0Z" fill="white"/>
</mask>
<g mask="url(#mask2_1794_2551)">
<path d="M257.94 49.4351C257.506 49.4383 257.079 49.3217 256.707 49.0981C256.504 48.9567 256.334 48.7736 256.207 48.5611C256.085 48.3363 255.99 48.098 255.924 47.8511L255.874 47.6771L256.987 47.1141V47.4691C256.984 47.5935 257.007 47.7171 257.056 47.8316C257.105 47.946 257.178 48.0485 257.27 48.1321C257.36 48.2197 257.467 48.2886 257.584 48.3349C257.701 48.3813 257.826 48.4041 257.952 48.4021C258.056 48.4018 258.159 48.3856 258.258 48.3541C258.365 48.3188 258.464 48.2657 258.553 48.1971C258.647 48.1242 258.721 48.029 258.769 47.9201C258.826 47.8 258.855 47.6688 258.854 47.5361C258.867 47.3939 258.829 47.2518 258.745 47.1361C258.678 47.0588 258.603 46.9893 258.521 46.9291C258.402 46.8616 258.28 46.8014 258.154 46.7491L257.168 46.4031C256.844 46.2579 256.561 46.0345 256.345 45.7531C256.136 45.4778 256.024 45.1408 256.027 44.7951C256.035 44.6376 256.056 44.481 256.09 44.3271C256.16 44.0397 256.307 43.7768 256.515 43.5671C256.722 43.3228 257.003 43.1522 257.315 43.0811C257.547 43.0319 257.783 43.0054 258.02 43.0021C258.093 43.0013 258.166 43.0044 258.239 43.0111C258.289 43.0161 258.417 43.0391 258.623 43.0811C258.894 43.1467 259.143 43.2803 259.348 43.4691C259.598 43.6798 259.783 43.9572 259.881 44.2691L259.94 44.4521L258.904 44.9371L258.841 44.6761C258.796 44.4881 258.679 44.3252 258.516 44.2221C258.34 44.0997 258.13 44.035 257.916 44.0371C257.775 44.0336 257.634 44.0642 257.507 44.1261C257.391 44.1907 257.297 44.2894 257.238 44.4091C257.194 44.512 257.17 44.6229 257.17 44.7351C257.166 44.8614 257.201 44.986 257.268 45.0928C257.336 45.1997 257.433 45.284 257.549 45.3351L259.026 45.8771L259.041 45.8851C259.338 46.0468 259.584 46.2895 259.749 46.5851C259.909 46.8694 259.992 47.19 259.992 47.5161C259.993 47.8 259.932 48.0807 259.814 48.3387C259.695 48.5967 259.522 48.8258 259.306 49.0101C258.906 49.2969 258.425 49.4495 257.932 49.4461" fill="#333333"/>
<path d="M259.566 46.681C259.421 46.4214 259.205 46.2084 258.943 46.067L257.454 45.519C257.304 45.4495 257.177 45.3376 257.089 45.1971C257.001 45.0566 256.957 44.8936 256.96 44.728C256.96 44.5793 256.992 44.4324 257.054 44.297C257.133 44.1394 257.259 44.0097 257.414 43.925C257.572 43.8469 257.747 43.8081 257.923 43.812C258.18 43.8107 258.432 43.8886 258.644 44.035C258.852 44.1688 259.001 44.3781 259.059 44.619L259.678 44.329C259.593 44.056 259.431 43.8131 259.212 43.629C259.035 43.4647 258.819 43.3475 258.585 43.288C258.389 43.2487 258.267 43.2264 258.22 43.221C258.153 43.2149 258.087 43.2122 258.02 43.213C257.797 43.2163 257.576 43.2415 257.358 43.288C257.09 43.3492 256.849 43.4963 256.672 43.707C256.491 43.887 256.362 44.1132 256.3 44.361C256.269 44.5016 256.249 44.6444 256.241 44.788C256.237 45.0865 256.334 45.3776 256.515 45.615C256.704 45.8632 256.952 46.061 257.236 46.191L258.236 46.544C258.373 46.6024 258.507 46.6692 258.636 46.744C258.734 46.8144 258.823 46.8956 258.903 46.986C259.027 47.1427 259.087 47.3407 259.071 47.54C259.071 47.7046 259.035 47.8671 258.965 48.016C258.902 48.1572 258.805 48.2805 258.683 48.375C258.575 48.4592 258.452 48.5241 258.322 48.567C258.202 48.6054 258.076 48.625 257.95 48.625C257.641 48.6286 257.343 48.5104 257.12 48.296C257.005 48.1922 256.915 48.0649 256.854 47.9229C256.793 47.7809 256.763 47.6275 256.767 47.473L256.132 47.794C256.193 48.0241 256.281 48.2462 256.394 48.456C256.5 48.6362 256.643 48.7922 256.813 48.914C257.151 49.1175 257.539 49.2234 257.933 49.22C258.373 49.2244 258.803 49.0904 259.163 48.837C259.355 48.6733 259.51 48.4696 259.615 48.24C259.721 48.0105 259.775 47.7607 259.774 47.508C259.775 47.219 259.7 46.9347 259.558 46.683" fill="#333333"/>
<path d="M194.308 22.895C192.844 22.9057 191.39 22.6638 190.008 22.18C188.653 21.714 187.41 20.9732 186.355 20.0041C185.3 19.0349 184.457 17.8583 183.878 16.548C183.104 14.845 182.687 13.0014 182.653 11.131V3.50098H177.136V9.82398C177.123 12.3522 177.709 14.8476 178.846 17.106C180.697 20.722 184.697 25.03 193.237 25.03L200.653 25.008C200.974 24.3276 201.236 23.621 201.437 22.896L194.308 22.895Z" fill="#333333"/>
<path d="M212.237 18.193V3.50098H206.722V19.506C206.722 19.606 206.856 29.976 196.222 31.278C195.728 31.339 195.236 31.378 194.716 31.396L194.501 31.405V33.355L194.714 33.364C195.248 33.388 195.7 33.401 196.137 33.401C204.677 33.401 208.676 29.091 210.528 25.477C211.664 23.2177 212.25 20.7217 212.237 18.193Z" fill="#333333"/>
<path d="M148.838 31.3187H148.695C146.199 31.2767 143.744 30.6828 141.505 29.5797C137.281 27.4167 135.138 23.6037 135.138 18.2507C135.062 16.479 135.359 14.7111 136.011 13.0617C136.662 11.4124 137.653 9.91837 138.919 8.67675C141.63 6.31333 145.123 5.04325 148.719 5.11375C152.06 5.0715 155.32 6.13933 157.988 8.14975C160.846 10.3787 162.419 13.9657 162.419 18.2497C162.419 30.9497 150.225 31.3177 148.833 31.3177M158.913 5.12675C155.701 3.75914 152.246 3.0542 148.754 3.0542C145.263 3.0542 141.808 3.75914 138.596 5.12675C132.718 7.63675 129.612 12.1767 129.612 18.2597C129.612 24.3597 132.723 28.8907 138.612 31.3597C141.812 32.6339 145.219 33.3091 148.663 33.3517H148.863C152.313 33.3091 155.726 32.6339 158.932 31.3597C164.832 28.8917 167.953 24.3597 167.953 18.2597C167.953 12.1777 164.827 7.63775 158.914 5.12875" fill="#333333"/>
<path d="M259.759 18.2356C259.752 12.1626 256.628 7.62864 250.722 5.12364C247.51 3.75614 244.055 3.05127 240.563 3.05127C237.072 3.05127 233.617 3.75614 230.405 5.12364C230.097 5.25564 229.805 5.38764 229.52 5.52364C227.545 6.44141 225.791 7.77439 224.378 9.43164C222.372 11.9253 221.323 15.0536 221.419 18.2526C221.419 28.9356 230.645 32.0526 236.119 32.9526C236.147 32.9615 236.176 32.9659 236.205 32.9656C236.408 32.9778 236.609 33.0113 236.805 33.0656C236.939 33.0966 237.079 33.1276 237.212 33.1466C237.605 33.2036 237.94 33.2466 238.261 33.2696C238.915 33.3246 239.578 33.3546 240.234 33.3576V33.3976H247.834V31.3106H240.296C238.941 31.2551 237.597 31.054 236.285 30.7106C234.98 30.3683 233.729 29.8481 232.566 29.1646C231.239 28.3862 230.087 27.342 229.183 26.0976C228.114 24.5709 227.417 22.8151 227.148 20.9706C227.007 20.0696 226.937 19.1587 226.94 18.2466C226.802 15.126 227.813 12.063 229.781 9.63764C230.768 8.50837 231.961 7.57715 233.296 6.89364C235.581 5.72726 238.112 5.12674 240.677 5.14264C242.646 5.0889 244.605 5.4486 246.427 6.19855C248.248 6.9485 249.892 8.07203 251.253 9.49664C253.069 11.5339 254.107 14.1475 254.182 16.8756V33.3426H259.782V18.2356H259.759Z" fill="#333333"/>
<path d="M119.83 29.7998C119.459 28.5665 118.941 27.3825 118.286 26.2738C117.654 25.2043 116.86 24.2386 115.934 23.4108C115.243 22.7966 114.455 22.3006 113.602 21.9428C114.942 21.4923 116.168 20.7552 117.194 19.7828C118.311 18.7186 119.149 17.3952 119.633 15.9298C120.093 14.5021 120.215 12.9869 119.99 11.5038C119.77 9.99164 119.187 8.55532 118.29 7.31783C117.316 5.99976 116.038 4.9363 114.565 4.21783C112.78 3.37249 110.82 2.9613 108.845 3.01783H86.214V34.0178H91.034V5.11783H106.579C108.052 5.05368 109.507 5.45804 110.736 6.27283C111.952 6.95766 112.966 7.94931 113.679 9.14883C114.331 10.2846 114.685 11.5666 114.708 12.8758C114.743 14.173 114.432 15.4561 113.808 16.5938C113.116 17.8025 112.105 18.7975 110.885 19.4698C109.604 20.2922 108.099 20.6955 106.579 20.6238H96.049V22.7238H107.922C108.819 22.7343 109.7 22.9574 110.494 23.3748C111.4 23.8555 112.183 24.5402 112.779 25.3748C113.52 26.4175 114.084 27.5754 114.448 28.8018C114.909 30.3746 115.128 32.0082 115.099 33.6468V34.0068H120.611L120.579 33.6238C120.46 32.329 120.21 31.0495 119.834 29.8048" fill="#333333"/>
</g>
</svg>
